<?xml version="1.0" encoding="UTF-8"?>
<svg width="10px" height="10px" viewBox="0 0 10 10" version="1.1" xmlns="http://www.w3.org/2000/svg" xmlns:xlink="http://www.w3.org/1999/xlink">
    <title>钻石@2x@1x</title>
    <g id="融合题页面" stroke="none" stroke-width="1" fill="none" fill-rule="evenodd">
        <g id="融合题-页面布局-方案二" transform="translate(-301.000000, -255.000000)" fill-rule="nonzero">
            <g id="左侧" transform="translate(50.000000, 88.000000)">
                <g id="钻石@2x" transform="translate(251.000000, 167.000000)">
                    <rect id="矩形" fill="#000000" opacity="0" x="0" y="0" width="10" height="10"></rect>
                    <path d="M0.872226562,3.85555664 L2.67777344,2.02777344 C2.72973904,1.9747577 2.8007639,1.94474903 2.875,1.94444336 L7.13055664,1.94444336 C7.20478935,1.94475164 7.27581021,1.9747601 7.32777344,2.02777344 L9.13333984,3.85555664 C9.23404118,3.95751045 9.24065669,4.11933664 9.14861328,4.22916992 L5.10693359,9.04027344 C5.08318856,9.06847295 5.04920637,9.0860752 5.01247406,9.08920202 C4.97574175,9.09232884 4.9392733,9.08072366 4.91110352,9.05694336 L4.89303711,9.04027344 L0.856953125,4.22916992 C0.764912348,4.11933417 0.771532091,3.95750788 0.872236328,3.85555664 L0.872226562,3.85555664 Z" id="路径" fill="#FFD491"></path>
                    <polygon id="路径" fill="#FFE7C1" points="5 1.94444336 3.05555664 4.02777344 6.94443359 4.02777344"></polygon>
                    <polygon id="路径" fill="#FFDBA3" points="3.05555664 4.02777344 5 9.44444336 6.94444336 4.02777344 3.05556641 4.02777344"></polygon>
                    <path d="M9.21348878,4.02777344 C9.21047396,4.07705252 9.20362683,4.11591585 9.19294739,4.1443634 C9.18226794,4.17281096 9.16099719,4.20884714 9.12913513,4.25247192 L5,9.44444336 L6.94444336,4.02777344 L9.21348878,4.02777344 Z M3.05555664,4.02777344 L0.792082109,4.02777344 C0.784532737,4.07548092 0.784532737,4.11105343 0.792082109,4.13449097 C0.799631481,4.15792851 0.821255153,4.18948816 0.856953125,4.22916992 L5,9.44444336 L3.05555664,4.02777344 Z" id="形状" fill="#FFA768"></path>
                </g>
            </g>
        </g>
    </g>
</svg>