<?xml version="1.0" encoding="UTF-8"?>
<svg width="12px" height="12px" viewBox="0 0 12 12" version="1.1" xmlns="http://www.w3.org/2000/svg" xmlns:xlink="http://www.w3.org/1999/xlink">
    <title>undo-outlined</title>
    <g id="融合题页面" stroke="none" stroke-width="1" fill="none" fill-rule="evenodd">
        <g id="融合题-页面布局-方案一" transform="translate(-270.000000, -824.000000)" fill="#1677FF" fill-rule="nonzero">
            <g id="左侧" transform="translate(50.000000, 88.000000)">
                <g id="图例" transform="translate(0.000000, 522.000000)">
                    <g id="状态区分" transform="translate(24.000000, 128.000000)">
                        <g transform="translate(10.000000, 30.000000)" id="客观题备份-5">
                            <g transform="translate(168.000000, 52.000000)">
                                <g id="1备份-11" transform="translate(14.000000, 0.000000)">
                                    <g id="undo-outlined" transform="translate(4.000000, 4.000000)">
                                        <rect id="矩形" opacity="0" x="0" y="0" width="12" height="12"></rect>
                                        <path d="M5.99296875,1.45312059 C3.40429688,1.45664062 1.3125,3.55078125 1.3125,6.13945312 C1.3125,7.63945312 2.01796875,8.97539062 3.11484375,9.83320312 L2.67539063,10.3957031 C2.62734375,10.4578125 2.671875,10.5480469 2.74921875,10.5468863 L4.70625,10.5375 C4.7671875,10.5375 4.81171875,10.4800781 4.79648438,10.4214844 L4.33359375,8.51953125 C4.31484375,8.44335938 4.21640625,8.42226562 4.16835937,8.484375 L3.69140625,9.09492188 C3.571875,9.00117188 3.45703125,8.89921875 3.34804687,8.79023437 C3.00351563,8.44570313 2.7328125,8.04492188 2.54414062,7.5984375 C2.3484375,7.13671875 2.25,6.64570312 2.25,6.13945312 C2.25,5.63320312 2.3484375,5.1421875 2.54414062,4.68046875 C2.7328125,4.23398437 3.00351563,3.83320312 3.34804687,3.48867187 C3.69257812,3.14414062 4.09335938,2.8734375 4.53984375,2.68476562 C5.00273437,2.4890625 5.49375,2.390625 6,2.390625 C6.50625,2.390625 6.99726562,2.4890625 7.45898438,2.68476562 C7.90546875,2.8734375 8.30625,3.14414062 8.65078125,3.48867187 C8.9953125,3.83320312 9.26601563,4.23398438 9.4546875,4.68046875 C9.65039063,5.1421875 9.74882813,5.63320312 9.74882813,6.13945312 C9.74882813,6.64570312 9.65039063,7.13671875 9.4546875,7.5984375 C9.26601563,8.04492188 8.9953125,8.44570312 8.65078125,8.79023437 C8.56289063,8.878125 8.47148438,8.96015625 8.3765625,9.03867188 C8.33671875,9.07148438 8.33085938,9.12890625 8.3625,9.16875 L8.82421875,9.76054688 C8.85703125,9.8015625 8.91679687,9.80859375 8.9578125,9.77578125 C10.0136719,8.915625 10.6875,7.60664062 10.6875,6.13945312 C10.6875,3.5484375 8.58515625,1.44960937 5.99296875,1.45312059 Z" id="路径"></path>
                                    </g>
                                </g>
                            </g>
                        </g>
                    </g>
                </g>
            </g>
        </g>
    </g>
</svg>