<?xml version="1.0" encoding="UTF-8"?>
<svg width="12px" height="12px" viewBox="0 0 12 12" version="1.1" xmlns="http://www.w3.org/2000/svg" xmlns:xlink="http://www.w3.org/1999/xlink">
    <title>part</title>
    <g id="融合题页面" stroke="none" stroke-width="1" fill="none" fill-rule="evenodd">
        <g id="融合题-页面布局-方案一" transform="translate(-270.000000, -772.000000)" fill="#8585FE" fill-rule="nonzero">
            <g id="左侧" transform="translate(50.000000, 88.000000)">
                <g id="图例" transform="translate(0.000000, 522.000000)">
                    <g id="状态区分" transform="translate(24.000000, 128.000000)">
                        <g transform="translate(10.000000, 30.000000)" id="客观题备份-2">
                            <g transform="translate(168.000000, 0.000000)">
                                <g id="1备份-11" transform="translate(14.000000, 0.000000)">
                                    <g id="part" transform="translate(4.000000, 4.000000)">
                                        <rect id="矩形" opacity="0" x="0" y="0" width="12" height="12"></rect>
                                        <path d="M10.6875,2.2265625 L9.86835937,2.2265625 C9.75351562,2.2265625 9.64453125,2.27929688 9.57421875,2.36953125 L4.74257812,8.49023437 L2.42578125,5.5546875 C2.35429687,5.46445312 2.24648437,5.41171875 2.13164062,5.41171875 L1.3125,5.41171875 C1.23398437,5.41171875 1.190625,5.50195312 1.23867187,5.56289062 L4.4484375,9.62929687 C4.5984375,9.81914062 4.88671875,9.81914062 5.03789062,9.62929687 L10.7613281,2.3765625 C10.809375,2.31679688 10.7660156,2.2265625 10.6875,2.2265625 Z" id="路径"></path>
                                        <path d="M9.60703125,7.0403125 L8.9953125,6.31140625 L6.45820312,3.28679688 C6.42304687,3.24460938 6.3703125,3.22 6.3140625,3.22 L5.37890625,3.22 C5.29921875,3.22 5.25585937,3.31257813 5.30742187,3.37351563 L8.38359375,7.0403125 L8.9953125,7.76921875 L9.55084574,8.39505239 C9.58600199,8.43723989 9.63873637,8.46184927 9.69498637,8.46184927 L10.6301426,8.46184927 C10.7098301,8.46184927 10.7531895,8.36927114 10.701627,8.30833364 L9.60703125,7.0403125 Z" id="路径"></path>
                                    </g>
                                </g>
                            </g>
                        </g>
                    </g>
                </g>
            </g>
        </g>
    </g>
</svg>